# xmcd CD database file
#
# Track frame offsets:
#	150
#	22153
#	43260
#
# Disc length: 853 seconds
#
# Revision: 0
# Processed by: cddbd v1.5.1PL2 Copyright (c) Steve Scherf et al.
# Submitted via: CDex 1.51
#
DISCID=24035303
DTITLE=LUNKHEAD - すべて
DYEAR=2006
DGENRE=JPop
TTITLE0=すべて
TTITLE1=鼻歌とサイドアウェイ
TTITLE2=ふたり
EXTD=YEAR: 2006.04.19
EXTT0=
EXTT1=
EXTT2=
PLAYORDER=
